<?xml version="1.0" standalone="no"?>
<!DOCTYPE svg PUBLIC "-//W3C//DTD SVG 20010904//EN"
 "http://www.w3.org/TR/2001/REC-SVG-20010904/DTD/svg10.dtd">
<svg version="1.0" xmlns="http://www.w3.org/2000/svg"
 width="630.000000pt" height="400.000000pt" viewBox="0 0 630.000000 400.000000"
 preserveAspectRatio="xMidYMid meet">

<g transform="translate(0.000000,400.000000) scale(0.100000,-0.100000)"
fill="#000000" stroke="none">
<path d="M2780 3409 c-135 -16 -276 -45 -450 -93 -226 -62 -554 -212 -761
-347 -139 -91 -226 -151 -254 -175 -17 -14 -52 -42 -78 -62 -26 -20 -44 -38
-39 -40 5 -1 40 13 78 32 70 35 195 92 286 130 31 13 68 28 163 63 38 14 62
23 145 53 19 6 51 16 70 20 19 5 76 20 125 33 239 65 548 107 770 107 97 0
341 -24 451 -44 70 -13 111 -23 269 -67 121 -33 383 -148 480 -210 17 -10 37
-22 45 -25 26 -12 165 -107 168 -116 2 -4 8 -8 14 -8 5 0 31 -17 56 -37 26
-21 58 -47 71 -58 70 -56 218 -209 231 -237 19 -42 19 -117 0 -154 -8 -16 -30
-49 -48 -74 -41 -55 -104 -186 -125 -260 -46 -161 -41 -358 14 -522 25 -75 47
-117 112 -222 38 -61 182 -194 262 -243 56 -34 157 -76 240 -99 88 -26 327
-26 415 0 318 91 534 297 632 602 19 60 22 92 23 234 0 196 -13 254 -88 405
-32 62 -41 78 -54 93 -7 7 -13 17 -13 21 0 12 -128 142 -175 178 -60 46 -132
87 -210 118 -75 30 -226 64 -288 65 -21 0 -44 6 -51 13 -30 29 -174 157 -201
179 -16 12 -39 31 -50 41 -11 10 -32 26 -47 35 -16 9 -28 20 -28 24 0 4 -6 8
-14 8 -8 0 -16 4 -18 9 -3 9 -242 171 -252 171 -4 0 -25 12 -49 27 -23 14 -94
52 -157 84 -301 150 -575 242 -950 319 -179 36 -530 50 -720 29z m2636 -1338
c76 -25 103 -39 173 -94 222 -172 246 -511 51 -715 -27 -29 -54 -52 -60 -52
-5 0 -10 -4 -10 -9 0 -14 -122 -70 -180 -82 -32 -7 -92 -9 -146 -6 -79 5 -101
10 -168 43 -42 21 -76 41 -76 46 0 4 -5 8 -10 8 -19 0 -108 103 -138 159 -60
115 -76 256 -41 361 75 223 247 356 465 359 55 1 100 -5 140 -18z"/>
<path d="M846 2455 c-37 -8 -91 -22 -120 -31 -61 -20 -190 -83 -194 -95 -2 -5
-9 -9 -15 -9 -13 0 -120 -92 -161 -138 -78 -89 -135 -181 -168 -272 -49 -138
-51 -151 -51 -315 1 -150 2 -164 28 -225 14 -36 28 -77 30 -92 4 -28 50 -118
89 -173 93 -134 235 -249 376 -306 136 -55 184 -64 350 -64 142 1 162 3 240
29 167 55 252 108 404 254 48 45 91 82 96 82 6 0 10 4 10 9 0 14 180 127 262
165 184 85 403 134 718 162 464 40 912 -8 1443 -155 37 -10 67 -15 67 -10 0 5
-3 9 -8 9 -4 0 -18 10 -32 23 -72 66 -292 203 -440 275 -431 209 -820 286
-1405 280 -285 -3 -291 -3 -355 21 -118 44 -215 117 -298 226 -116 150 -248
250 -418 314 -115 44 -328 61 -448 36z m284 -384 c89 -26 144 -57 205 -116
105 -102 155 -217 155 -355 0 -191 -109 -360 -290 -448 -74 -37 -76 -37 -200
-37 -125 0 -125 0 -203 39 -152 76 -235 188 -273 369 -16 76 -16 94 -5 154 7
37 26 96 43 130 30 64 141 193 165 193 7 0 13 4 13 8 0 11 38 29 120 58 83 29
182 31 270 5z"/>
</g>
</svg>
